<svg xmlns="http://www.w3.org/2000/svg" width="20" height="20" viewBox="0 0 20 20" fill="none">
    <path fill-rule="evenodd" clip-rule="evenodd" d="M11.3006 1.99927C11.7169 2.13049 12 2.51654 12 2.95301L9.81924 7.15742L16 6.61923C16.3729 6.61923 16.7148 6.82669 16.887 7.15742C17.0592 7.48815 17.0331 7.88722 16.8192 8.1927L9.81924 18.1927C9.56894 18.5503 9.11564 18.7042 8.69936 18.573C8.28309 18.4418 8 18.0557 8 17.6192L11.3006 11.0458L4 12.6192C3.62713 12.6192 3.28522 12.4118 3.11302 12.081C2.94083 11.7503 2.96694 11.3512 3.18077 11.0458L10.1808 2.37954C10.4311 2.02197 10.8844 1.86805 11.3006 1.99927Z" fill="#CF0014"/>
</svg>