<svg xmlns="http://www.w3.org/2000/svg" width="25" height="24" viewBox="0 0 25 24" fill="none">
    <path d="M22.4999 9L19.8799 10" stroke="#CF0014" stroke-width="1.5" stroke-linecap="round" stroke-linejoin="round"/>
    <path d="M5.13 10L2.5 9" stroke="#CF0014" stroke-width="1.5" stroke-linecap="round" stroke-linejoin="round"/>
    <path d="M18.75 14H16.25" stroke="#CF0014" stroke-width="1.5" stroke-linecap="round" stroke-linejoin="round"/>
    <path d="M8.75 14H6.25" stroke="#CF0014" stroke-width="1.5" stroke-linecap="round" stroke-linejoin="round"/>
    <path d="M19.879 10L19.04 5.988C18.797 4.83 17.776 4 16.592 4H8.51195C7.35095 4 6.34195 4.8 6.07795 5.931L5.12695 10" stroke="#CF0014" stroke-width="1.5" stroke-linecap="round" stroke-linejoin="round"/>
    <path fill-rule="evenodd" clip-rule="evenodd" d="M3.75 20H6C6.828 20 7.5 19.328 7.5 18.5V17.5H17.5V18.5C17.5 19.328 18.172 20 19 20H21.25C21.94 20 22.5 19.44 22.5 18.75V13C22.5 11.343 21.157 10 19.5 10H5.5C3.843 10 2.5 11.343 2.5 13V18.75C2.5 19.44 3.06 20 3.75 20Z" stroke="#CF0014" stroke-width="1.5" stroke-linecap="round" stroke-linejoin="round"/>
</svg>