<svg xmlns="http://www.w3.org/2000/svg" width="32" height="32" viewBox="0 0 32 32" fill="none">
    <path d="M29.3332 12L25.8398 13.3333" stroke="#323232" stroke-width="1.5" stroke-linecap="round" stroke-linejoin="round"/>
    <path d="M6.17366 13.3333L2.66699 12" stroke="#323232" stroke-width="1.5" stroke-linecap="round" stroke-linejoin="round"/>
    <path d="M24.3333 18.6667H21" stroke="#323232" stroke-width="1.5" stroke-linecap="round" stroke-linejoin="round"/>
    <path d="M11.0003 18.6667H7.66699" stroke="#323232" stroke-width="1.5" stroke-linecap="round" stroke-linejoin="round"/>
    <path d="M25.8393 13.332L24.7206 7.9827C24.3966 6.4387 23.0353 5.33203 21.4566 5.33203H10.6833C9.13526 5.33203 7.78992 6.3987 7.43792 7.9067L6.16992 13.332" stroke="#323232" stroke-width="1.5" stroke-linecap="round" stroke-linejoin="round"/>
    <path fill-rule="evenodd" clip-rule="evenodd" d="M4.33366 26.6654H7.33366C8.43766 26.6654 9.33366 25.7694 9.33366 24.6654V23.332H22.667V24.6654C22.667 25.7694 23.563 26.6654 24.667 26.6654H27.667C28.587 26.6654 29.3337 25.9187 29.3337 24.9987V17.332C29.3337 15.1227 27.543 13.332 25.3337 13.332H6.66699C4.45766 13.332 2.66699 15.1227 2.66699 17.332V24.9987C2.66699 25.9187 3.41366 26.6654 4.33366 26.6654Z" stroke="#323232" stroke-width="1.5" stroke-linecap="round" stroke-linejoin="round"/>
</svg>