<svg xmlns="http://www.w3.org/2000/svg" viewBox="0 0 16 16" fill="none">
    <path fill-rule="evenodd" clip-rule="evenodd" d="M3.43432 12.5657C3.74673 12.8781 4.25327 12.8781 4.56569 12.5657L8 9.13136L11.4343 12.5657C11.7467 12.8781 12.2533 12.8781 12.5657 12.5657C12.8781 12.2533 12.8781 11.7467 12.5657 11.4343L9.13137 7.99999L12.5657 4.56567C12.8781 4.25325 12.8781 3.74672 12.5657 3.4343C12.2533 3.12188 11.7467 3.12188 11.4343 3.4343L8 6.86862L4.56569 3.4343C4.25327 3.12188 3.74673 3.12188 3.43432 3.4343C3.1219 3.74672 3.1219 4.25325 3.43432 4.56567L6.86863 7.99999L3.43432 11.4343C3.1219 11.7467 3.1219 12.2533 3.43432 12.5657Z" fill="#006E8E"/>
</svg>