<svg xmlns="http://www.w3.org/2000/svg" width="32" height="32" viewBox="0 0 32 32" fill="none">
    <path fill-rule="evenodd" clip-rule="evenodd" d="M5.32901 13.9961H21.3357C22.0724 13.9961 22.6696 14.5933 22.6696 15.33V19.3316C22.6696 23.7518 19.0863 27.335 14.6662 27.335H11.9985C7.57833 27.335 3.99512 23.7518 3.99512 19.3316V15.33C3.99512 14.5933 4.59232 13.9961 5.32901 13.9961Z" stroke="#323232" stroke-width="1.5" stroke-linecap="round" stroke-linejoin="round"/>
    <path d="M18.0009 9.99757C17.1117 9.06384 17.1117 7.59657 18.0009 6.66285C18.8902 5.72913 18.8902 4.26184 18.0009 3.32812" stroke="#323232" stroke-width="1.5" stroke-linecap="round" stroke-linejoin="round"/>
    <path d="M13.332 9.99757C12.4427 9.06384 12.4427 7.59657 13.332 6.66285C14.2212 5.72912 14.2212 4.26185 13.332 3.32812" stroke="#323232" stroke-width="1.5" stroke-linecap="round" stroke-linejoin="round"/>
    <path d="M8.66304 9.99757C7.77378 9.06385 7.77378 7.59657 8.66304 6.66285C9.5523 5.72912 9.5523 4.26185 8.66304 3.32812" stroke="#323232" stroke-width="1.5" stroke-linecap="round" stroke-linejoin="round"/>
    <path d="M21.5054 23.4866L23.9675 22.9232C26.3295 22.3827 28.0044 20.2813 28.0044 17.8582V17.8582C28.0044 16.8339 27.5975 15.8516 26.8732 15.1273C26.1489 14.403 25.1666 13.9961 24.1423 13.9961H20.668" stroke="#323232" stroke-width="1.5" stroke-linecap="round" stroke-linejoin="round"/>
</svg>