<svg width="24" height="25" viewBox="0 0 24 25" fill="none"
    xmlns="http://www.w3.org/2000/svg">
    <path d="M15.8053 8.85876C15.9502 9.00364 15.9502 9.23855 15.8053 9.38343C15.6604 9.52832 15.4255 9.52832 15.2806 9.38343C15.1357 9.23855 15.1357 9.00364 15.2806 8.85876C15.4255 8.71387 15.6604 8.71387 15.8053 8.85876" stroke="#006900" stroke-width="1.5" stroke-linecap="round" stroke-linejoin="round"/>
    <path fill-rule="evenodd" clip-rule="evenodd" d="M13.5118 4.66797H17.8968C19.0588 4.66797 19.9998 5.60897 19.9998 6.76997V11.155C19.9998 11.713 19.7778 12.247 19.3838 12.642L10.9738 21.052C10.1528 21.873 8.82175 21.873 8.00075 21.052L3.61575 16.667C2.79475 15.846 2.79475 14.515 3.61575 13.694L12.0258 5.28397C12.4198 4.88997 12.9548 4.66797 13.5118 4.66797Z" stroke="#006900" stroke-width="1.5" stroke-linecap="round" stroke-linejoin="round"/>
    <path d="M5.80859 11.5078L13.1586 18.8578" stroke="#006900" stroke-width="1.5" stroke-linecap="round" stroke-linejoin="round"/>
</svg>
