<svg xmlns="http://www.w3.org/2000/svg" width="32" height="32" viewBox="0 0 32 32" fill="none">
    <path d="M4 22.1574C5.528 21.4788 7.272 21.4788 8.8 22.1574C10.328 22.8361 12.072 22.8361 13.6 22.1574C15.128 21.4788 16.872 21.4788 18.4 22.1574C19.928 22.8361 21.672 22.8361 23.2 22.1574C24.728 21.4788 26.472 21.4788 28 22.1574" stroke="#323232" stroke-width="1.5" stroke-linecap="round" stroke-linejoin="round"/>
    <path d="M10.667 10.6667H21.3337" stroke="#323232" stroke-width="1.5" stroke-linecap="round" stroke-linejoin="round"/>
    <path d="M10.667 15.9987H21.3337" stroke="#323232" stroke-width="1.5" stroke-linecap="round" stroke-linejoin="round"/>
    <path d="M21.333 18.6667V6C21.333 4.896 22.229 4 23.333 4V4C24.437 4 25.333 4.896 25.333 6" stroke="#323232" stroke-width="1.5" stroke-linecap="round" stroke-linejoin="round"/>
    <path d="M10.667 18.6667V6C10.667 4.896 11.563 4 12.667 4V4C13.771 4 14.667 4.896 14.667 6" stroke="#323232" stroke-width="1.5" stroke-linecap="round" stroke-linejoin="round"/>
    <path d="M4 27.4895C5.528 26.8108 7.272 26.8108 8.8 27.4895C10.328 28.1681 12.072 28.1681 13.6 27.4895C15.128 26.8108 16.872 26.8108 18.4 27.4895C19.928 28.1681 21.672 28.1681 23.2 27.4895C24.728 26.8108 26.472 26.8108 28 27.4895" stroke="#323232" stroke-width="1.5" stroke-linecap="round" stroke-linejoin="round"/>
</svg>